<?xml version="1.0" ?>
<!-- Uploaded to: SVG Repo, www.svgrepo.com, Generator: SVG Repo Mixer Tools -->
<svg width="800px" height="800px" viewBox="0 0 512 512" baseProfile="tiny" overflow="visible" version="1.1" xml:space="preserve" xmlns="http://www.w3.org/2000/svg" xmlns:xlink="http://www.w3.org/1999/xlink">
<g id="Layer_1"/>
<g id="Layer_2"/>
<g id="Layer_3"/>
<g id="Layer_4"/>
<g id="Layer_5"/>
<g id="Layer_6"/>
<g id="Layer_7"/>
<g id="Layer_8"/>
<g id="Layer_9"/>
<g id="Layer_10"/>
<g id="Layer_11"/>
<g id="Layer_12"/>
<g id="Layer_13"/>
<g id="Layer_14"/>
<g id="Layer_15"/>
<g id="Layer_16"/>
<g id="Layer_17"/>
<g id="Layer_18"/>
<g id="Layer_19"/>
<g id="Layer_20"/>
<g id="Layer_21"/>
<g id="Layer_22"/>
<g id="Layer_23"/>
<g id="Layer_24"/>
<g id="Layer_25"/>
<g id="Layer_26"/>
<g id="Layer_27"/>
<g id="Layer_28"/>
<g id="Layer_29"/>
<g id="Layer_30"/>
<g id="Layer_31"/>
<g id="Layer_32"/>
<g id="Layer_33"/>
<g id="Layer_34"/>
<g id="Layer_35"/>
<g id="Layer_36"/>
<g id="Layer_37"/>
<g id="Layer_38"/>
<g id="Layer_39"/>
<g id="Layer_40"/>
<g id="Layer_41"/>
<g id="Layer_42"/>
<g id="Layer_43"/>
<g id="Layer_44"/>
<g id="Layer_45"/>
<g id="Layer_46"/>
<g id="Layer_47"/>
<g id="Layer_48"/>
<g id="Layer_49"/>
<g id="Layer_50">
<g>
<path d="M256,7.5L256,7.5C118.757,7.5,7.5,118.757,7.5,256v243.5c0,2.761,2.239,5,5,5h487c2.761,0,5-2.239,5-5V256    C504.5,118.757,393.243,7.5,256,7.5z" fill="#FFBE73"/>
<path d="M256,7.5L256,7.5c-3.351,0-6.682,0.086-10,0.217C378.604,12.968,484.5,122.108,484.5,256v243.5    c0,2.761-2.239,5-5,5h20c2.761,0,5-2.239,5-5V256C504.5,118.757,393.243,7.5,256,7.5z" fill="#FFB25A"/>
</g>
<g>
<g>
<path d="M499.495,512h-487c-6.893,0-12.5-5.607-12.5-12.5V256c0-68.38,26.629-132.668,74.98-181.02S187.615,0,255.995,0     s132.668,26.629,181.02,74.98s74.98,112.64,74.98,181.02v243.5C511.995,506.393,506.387,512,499.495,512z M14.995,497h482V256     c0-132.888-108.112-241-241-241s-241,108.112-241,241V497z"/>
</g>
<g>
<g>
<g>
<path d="M218.3,208.204c-3.03,0-5.885-1.851-7.018-4.854l-23.004-60.956l-23.225,60.978c-1.475,3.871-5.808,5.812-9.679,4.339       c-3.87-1.475-5.813-5.808-4.339-9.679l28.657-75.241c0.021-0.057,0.044-0.114,0.067-0.171c1.425-3.48,4.774-5.731,8.535-5.734       c0.003,0,0.005,0,0.008,0c3.757,0,7.106,2.244,8.535,5.719c0.027,0.068,0.055,0.136,0.08,0.204l28.396,75.245       c1.463,3.876-0.493,8.203-4.368,9.665C220.076,208.048,219.18,208.204,218.3,208.204z"/>
</g>
<g>
<path d="M209.506,189.463h-42.523c-4.143,0-7.5-3.357-7.5-7.5s3.357-7.5,7.5-7.5h42.523c4.143,0,7.5,3.357,7.5,7.5       S213.649,189.463,209.506,189.463z"/>
</g>
</g>
<g>
<g>
<path d="M77.538,208.202c-4.143,0-7.5-3.357-7.5-7.5v-76.316c0-4.143,3.357-7.5,7.5-7.5s7.5,3.357,7.5,7.5v76.316       C85.038,204.845,81.68,208.202,77.538,208.202z"/>
</g>
<g>
<path d="M130.35,208.202c-4.143,0-7.5-3.357-7.5-7.5v-76.316c0-4.143,3.357-7.5,7.5-7.5s7.5,3.357,7.5,7.5v76.316       C137.85,204.845,134.493,208.202,130.35,208.202z"/>
</g>
<g>
<path d="M130.35,168.735H77.538c-4.143,0-7.5-3.357-7.5-7.5s3.357-7.5,7.5-7.5h52.812c4.143,0,7.5,3.357,7.5,7.5       S134.493,168.735,130.35,168.735z"/>
</g>
</g>
<g>
<g>
<path d="M412.181,169.219c-2.533,0-4.895-1.278-6.28-3.399l-24.377-37.333c-2.265-3.469-1.288-8.116,2.18-10.381       c3.466-2.263,8.115-1.289,10.381,2.18l18.087,27.701l17.902-27.499c2.261-3.472,6.905-4.454,10.377-2.193       c3.472,2.26,4.453,6.905,2.193,10.377l-24.178,37.14c-1.383,2.124-3.745,3.406-6.28,3.408       C412.185,169.219,412.183,169.219,412.181,169.219z"/>
</g>
<g>
<path d="M412.086,208.202c-0.006,0-0.012,0-0.019,0c-4.142-0.01-7.491-3.376-7.481-7.519l0.095-38.983       c0.01-4.136,3.366-7.481,7.5-7.481c0.006,0,0.012,0,0.019,0c4.142,0.01,7.491,3.376,7.481,7.519l-0.095,38.983       C419.577,204.856,416.22,208.202,412.086,208.202z"/>
</g>
</g>
<g>
<g>
<path d="M245.996,208.202c-4.143,0-7.5-3.357-7.5-7.5v-76.316c0-4.143,3.357-7.5,7.5-7.5s7.5,3.357,7.5,7.5v76.316       C253.496,204.845,250.138,208.202,245.996,208.202z"/>
</g>
<g>
<path d="M246.144,175.054c-1.973,0-3.866-0.777-5.271-2.164c-1.415-1.397-2.217-3.301-2.229-5.29       c0,0-0.096-15.669-0.096-21.678c0-4.918-0.053-21.513-0.053-21.513c-0.006-1.993,0.781-3.906,2.188-5.318       s3.318-2.205,5.312-2.205h21.25c16.243,0,29.458,13.025,29.458,29.036s-13.215,29.037-29.458,29.037       c-5.885,0-21.052,0.095-21.055,0.095C246.175,175.054,246.16,175.054,246.144,175.054z M253.518,131.886       c0.015,5.076,0.03,11.325,0.03,14.036c0,3.221,0.027,9.228,0.054,14.089c4.723-0.025,10.501-0.052,13.644-0.052       c7.837,0,14.458-6.428,14.458-14.037c0-7.608-6.621-14.036-14.458-14.036H253.518z"/>
</g>
</g>
<g>
<g>
<path d="M316.9,208.202c-4.143,0-7.5-3.357-7.5-7.5v-76.316c0-4.143,3.357-7.5,7.5-7.5s7.5,3.357,7.5,7.5v76.316       C324.4,204.845,321.042,208.202,316.9,208.202z"/>
</g>
<g>
<path d="M317.048,175.054c-1.973,0-3.866-0.777-5.271-2.164c-1.415-1.397-2.217-3.301-2.229-5.29       c0,0-0.096-15.669-0.096-21.678c0-4.918-0.053-21.513-0.053-21.513c-0.006-1.993,0.781-3.906,2.188-5.318       s3.318-2.205,5.312-2.205h21.25c16.243,0,29.458,13.025,29.458,29.036s-13.215,29.037-29.458,29.037       c-5.885,0-21.052,0.095-21.055,0.095C317.08,175.054,317.064,175.054,317.048,175.054z M324.422,131.886       c0.015,5.076,0.03,11.325,0.03,14.036c0,3.221,0.027,9.228,0.054,14.089c4.723-0.025,10.501-0.052,13.644-0.052       c7.837,0,14.458-6.428,14.458-14.037c0-7.608-6.621-14.036-14.458-14.036H324.422z"/>
</g>
</g>
</g>
<g>
<g>
<g>
<g>
<g>
<path d="M187.132,341.317c-0.898,0-1.812-0.163-2.702-0.506c-3.863-1.494-5.785-5.836-4.292-9.7l29.216-75.589         c0.023-0.059,0.047-0.117,0.07-0.175c1.439-3.461,4.797-5.698,8.554-5.7c0.001,0,0.004,0,0.005,0         c3.755,0,7.111,2.232,8.553,5.688c0.028,0.068,0.056,0.137,0.082,0.205l28.951,75.592c1.481,3.868-0.453,8.205-4.321,9.687         c-3.87,1.483-8.205-0.453-9.687-4.321l-23.604-61.628L194.13,336.52C192.98,339.494,190.141,341.317,187.132,341.317z"/>
</g>
<g>
<path d="M239.6,322.49h-43.354c-4.143,0-7.5-3.357-7.5-7.5s3.357-7.5,7.5-7.5H239.6c4.143,0,7.5,3.357,7.5,7.5         S243.743,322.49,239.6,322.49z"/>
</g>
</g>
<g>
<g>
<path d="M272.002,341.315c-4.143,0-7.5-3.357-7.5-7.5V257.29c0-3.272,2.122-6.168,5.243-7.152         c3.123-0.989,6.521,0.168,8.398,2.848l40.881,58.332v-54.17c0-4.143,3.357-7.5,7.5-7.5s7.5,3.357,7.5,7.5v74.084         c0,4.219-2.355,7.69-6.002,8.843c-3.557,1.126-7.345-0.271-9.651-3.553l-38.869-55.462v52.756         C279.502,337.958,276.145,341.315,272.002,341.315z"/>
</g>
</g>
<g>
<g>
<path d="M349.962,341.315c-4.143,0-7.5-3.357-7.5-7.5v-76.668c0-4.143,3.357-7.5,7.5-7.5s7.5,3.357,7.5,7.5v76.668         C357.462,337.958,354.105,341.315,349.962,341.315z"/>
</g>
<g>
<path d="M394.578,341.315c-1.856,0-3.715-0.685-5.167-2.064l-42.126-40.048c-1.512-1.438-2.356-3.439-2.331-5.526         c0.024-2.086,0.918-4.067,2.464-5.468l39.364-35.653c3.069-2.781,7.812-2.546,10.594,0.523         c2.781,3.07,2.546,7.813-0.523,10.594L363.478,293.9l36.269,34.479c3.002,2.854,3.122,7.601,0.268,10.604         C398.54,340.533,396.56,341.315,394.578,341.315z"/>
</g>
</g>
<g>
<g>
<path d="M109.853,341.315c-4.143,0-7.5-3.357-7.5-7.5v-76.668c0-4.143,3.357-7.5,7.5-7.5s7.5,3.357,7.5,7.5v76.668         C117.353,337.958,113.996,341.315,109.853,341.315z"/>
</g>
<g>
<path d="M163.697,341.315c-4.143,0-7.5-3.357-7.5-7.5v-76.668c0-4.143,3.357-7.5,7.5-7.5s7.5,3.357,7.5,7.5v76.668         C171.197,337.958,167.839,341.315,163.697,341.315z"/>
</g>
<g>
<path d="M163.697,301.666h-53.844c-4.143,0-7.5-3.357-7.5-7.5s3.357-7.5,7.5-7.5h53.844c4.143,0,7.5,3.357,7.5,7.5         S167.839,301.666,163.697,301.666z"/>
</g>
</g>
<g>
<g>
<path d="M445.13,341.315c-12.495,0-24.695-5.154-32.634-13.789c-2.804-3.049-2.605-7.793,0.444-10.597         c3.048-2.805,7.794-2.604,10.597,0.444c5.148,5.599,13.221,8.941,21.593,8.941c8.729,0,14.886-5.335,15.794-10.493         c0.891-5.061-3.337-9.685-11.599-12.688c-11.997-4.361-22.645-9.031-23.093-9.228c-0.358-0.158-0.705-0.344-1.035-0.556         c-7.477-4.803-11.346-13.25-10.095-22.045c1.346-9.474,8.362-17.192,18.31-20.145c20.064-5.961,36.648,7.513,37.344,8.09         c3.189,2.643,3.634,7.37,0.992,10.561c-2.635,3.179-7.339,3.63-10.529,1.018c-0.187-0.149-11.286-8.928-23.539-5.288         c-4.319,1.282-7.208,4.227-7.727,7.876c-0.397,2.792,0.694,5.382,2.933,7.025c2.425,1.049,11.638,4.985,21.563,8.594         c18.309,6.654,22.98,19.543,21.247,29.387C473.399,331.474,460.258,341.315,445.13,341.315z"/>
</g>
</g>
<g>
<g>
<path d="M86.415,264.647h-42.97c-4.143,0-7.5-3.357-7.5-7.5s3.357-7.5,7.5-7.5h42.97c4.143,0,7.5,3.357,7.5,7.5         S90.558,264.647,86.415,264.647z"/>
</g>
<g>
<path d="M64.844,341.315c-4.143,0-7.5-3.357-7.5-7.5v-74.22c0-4.143,3.357-7.5,7.5-7.5s7.5,3.357,7.5,7.5v74.22         C72.344,337.958,68.987,341.315,64.844,341.315z"/>
</g>
</g>
</g>
<g>
<g>
<g>
<path d="M291.339,470.562c-4.143,0-7.5-3.357-7.5-7.5v-65.356c0-3.301,2.158-6.214,5.315-7.175         c3.156-0.962,6.573,0.254,8.412,2.995l30.866,45.988v-41.932c0-4.143,3.357-7.5,7.5-7.5s7.5,3.357,7.5,7.5v63.272         c0,4.137-2.334,7.521-5.947,8.623c-3.533,1.075-7.229-0.338-9.425-3.602l-29.222-43.538v40.724         C298.839,467.204,295.482,470.562,291.339,470.562z"/>
</g>
</g>
<g>
<g>
<path d="M175.777,470.562c-4.143,0-7.5-3.357-7.5-7.5v-65.479c0-4.143,3.357-7.5,7.5-7.5s7.5,3.357,7.5,7.5v65.479         C183.277,467.204,179.919,470.562,175.777,470.562z"/>
</g>
</g>
<g>
<g>
<path d="M267.902,470.562c-4.143,0-7.5-3.357-7.5-7.5v-65.479c0-4.143,3.357-7.5,7.5-7.5s7.5,3.357,7.5,7.5v65.479         C275.402,467.204,272.044,470.562,267.902,470.562z"/>
</g>
</g>
<g>
<g>
<path d="M125.151,470.562c-21.681,0-39.319-18.051-39.319-40.239s17.639-40.24,39.319-40.24         c7.914,0,15.546,2.397,22.071,6.934c3.4,2.364,4.241,7.038,1.877,10.439c-2.365,3.399-7.037,4.241-10.439,1.877         c-3.999-2.78-8.671-4.25-13.509-4.25c-13.41,0-24.319,11.322-24.319,25.24c0,13.917,10.909,25.239,24.319,25.239         c11.622,0,17.331-8.455,19.226-17.739h-10.795c-4.143,0-7.5-3.357-7.5-7.5s3.357-7.5,7.5-7.5h19.037         c4.143,0,7.5,3.357,7.5,7.5C160.119,454.015,145.74,470.562,125.151,470.562z"/>
</g>
</g>
<g>
<g>
<path d="M391.19,470.562c-21.681,0-39.319-18.051-39.319-40.239s17.639-40.24,39.319-40.24         c7.914,0,15.546,2.397,22.071,6.934c3.4,2.364,4.241,7.038,1.877,10.439c-2.365,3.399-7.037,4.241-10.439,1.877         c-3.999-2.78-8.671-4.25-13.509-4.25c-13.41,0-24.319,11.322-24.319,25.24c0,13.917,10.909,25.239,24.319,25.239         c11.622,0,17.331-8.455,19.226-17.739h-10.795c-4.143,0-7.5-3.357-7.5-7.5s3.357-7.5,7.5-7.5h19.037         c4.143,0,7.5,3.357,7.5,7.5C426.158,454.015,411.779,470.562,391.19,470.562z"/>
</g>
</g>
<g>
<g>
<path d="M222.325,470.562c-3.805,0-7.192-2.419-8.441-6.035l-21.775-64.547c-1.324-3.925,0.784-8.18,4.709-9.504         c3.927-1.324,8.18,0.784,9.504,4.709l15.879,47.068l15.128-46.854c1.272-3.941,5.498-6.107,9.441-4.832         c3.941,1.272,6.105,5.499,4.832,9.441l-20.779,64.356c-1.223,3.701-4.607,6.172-8.438,6.197         C222.365,470.562,222.345,470.562,222.325,470.562z"/>
</g>
</g>
</g>
</g>
</g>
</g>
</g>
</svg>